Coordinates
version=1
nRows=6
nColumns=34
inDegrees=yes

Units are S.I. units (second, meters, Newtons, ...)
If the header above contains a line with 'inDegrees', this indicates whether rotational values are in degrees (yes) or radians (no).

endheader
time	pelvis_tilt	pelvis_list	pelvis_rotation	pelvis_tx	pelvis_ty	pelvis_tz	hip_flexion_r	hip_adduction_r	hip_rotation_r	knee_angle_r	ankle_angle_r	subtalar_angle_r	mtp_angle_r	hip_flexion_l	hip_adduction_l	hip_rotation_l	knee_angle_l	ankle_angle_l	subtalar_angle_l	mtp_angle_l	lumbar_extension	lumbar_bending	lumbar_rotation	arm_flex_r	arm_add_r	arm_rot_r	elbow_flex_r	pro_sup_r	arm_flex_l	arm_add_l	arm_rot_l	elbow_flex_l	pro_sup_l
      3.66666670	     -7.53200708	      1.57005496	      2.26235079	     -1.90840991	      0.93613771	      0.48134908	     -3.76808783	     -0.37736862	      2.08172520	      0.00000000	     10.22177042	      3.11006549	      0.00000000	      9.69791455	     -4.23961209	    -28.26218602	      0.00000000	      3.45741285	      9.29974159	      0.00000000	     -4.63552739	      6.31047684	     -1.73055484	      5.90454651	    -12.26068708	     -2.86752516	     20.79346900	     72.15545580	     -4.23374789	     -7.12100284	     -6.98932652	     21.98578251	     79.64164063
      3.68333330	     -7.66137524	      1.40015938	      2.44068815	     -1.90408774	      0.93671681	      0.47906930	     -3.85782048	     -0.24904316	      1.85527245	      0.00000000	     10.04266122	      2.95545339	      0.00000000	     10.89152635	     -4.43742511	    -28.91917236	      0.00000000	      3.24091764	     10.96803869	      0.00000000	     -4.67092372	      6.26255375	     -1.63925746	      6.06089717	    -12.23129882	     -2.87350710	     20.96927424	     71.98886679	     -4.09688406	     -7.13476589	     -7.49515639	     22.07291555	     79.82482817
      3.70000000	     -7.65310928	      1.19546601	      2.46845823	     -1.90005287	      0.93751098	      0.47657612	     -4.14130010	     -0.08599308	      1.80683016	      0.00000000	     10.02210183	      2.93258321	      0.00000000	     11.87860444	     -4.67171447	    -28.81391713	      0.00000000	      2.85669443	     11.37212735	      0.00000000	     -5.01153967	      6.14964102	     -1.47609310	      6.36751134	    -12.20391368	     -2.86323495	     21.05534225	     71.97954771	     -3.93586147	     -7.22718084	     -7.55402919	     22.10833043	     79.83789547
      3.71666670	     -7.85182445	      0.91577679	      2.53307672	     -1.89539645	      0.93730716	      0.47377841	     -4.24064238	      0.14528056	      1.50236463	      0.00000000	      9.66107109	      2.73539007	      0.00000000	     13.04921625	     -4.98929423	    -29.88288569	      0.00000000	      2.36382638	     14.14647170	      0.00000000	     -4.74353468	      6.28589516	     -1.48110256	      6.47855723	    -12.20168536	     -2.73554987	     21.33069488	     71.85194934	     -3.92302942	     -7.19470064	     -8.20176524	     22.15770582	     80.00942801
      3.73333330	     -7.82267400	      0.69508489	      2.34550430	     -1.89076367	      0.93688408	      0.47097958	     -4.49804392	      0.28968352	      1.37368910	      0.00000000	      9.70618964	      2.67169918	      0.00000000	     13.89277264	     -5.27322547	    -29.70542353	      0.00000000	      1.82188550	     14.58745879	      0.00000000	     -5.04147942	      6.23752680	     -1.24403529	      6.77896178	    -12.14595623	     -2.70816974	     21.41605124	     71.84649614	     -3.83985175	     -7.31137343	     -8.27825144	     22.17632873	     80.02118555
      3.75000000	     -7.95888961	      0.40470068	      2.35456872	     -1.88509900	      0.93629943	      0.46751936	     -4.64073112	      0.51391602	      1.06266965	      0.00000000	      9.47886695	      2.67232264	      0.00000000	     14.88903005	     -5.58227299	    -30.45426436	      0.00000000	      1.08290460	     16.82376260	      0.00000000	     -4.88208910	      6.28240448	     -1.19501549	      6.81026804	    -12.17031655	     -2.47779125	     21.64274466	     71.77559777	     -3.85246704	     -7.27142951	     -8.94683328	     22.30131205	     80.14785820
